<svg width="48" height="48" viewBox="0 0 48 48" fill="none" xmlns="http://www.w3.org/2000/svg">
<path d="M30.5 40C30.5 41.3349 29.3789 42.9472 26.6429 44.3152C23.9966 45.6383 20.2359 46.5 16 46.5C11.7641 46.5 8.00336 45.6383 5.35711 44.3152C2.62114 42.9472 1.5 41.3349 1.5 40C1.5 38.6651 2.62114 37.0528 5.35711 35.6848C8.00336 34.3617 11.7641 33.5 16 33.5C20.2359 33.5 23.9966 34.3617 26.6429 35.6848C29.3789 37.0528 30.5 38.6651 30.5 40Z" stroke="#152C5B" stroke-width="3"/>
<path d="M28.5 12C28.5 15.0495 27.0032 22.1006 24.5042 28.4348C23.2613 31.5851 21.8126 34.4466 20.2558 36.4924C18.6479 38.6052 17.196 39.5 16 39.5C14.804 39.5 13.3521 38.6052 11.7442 36.4924C10.1874 34.4466 8.73874 31.5851 7.49584 28.4348C4.99681 22.1006 3.5 15.0495 3.5 12C3.5 6.40961 8.87118 1.5 16 1.5C23.1288 1.5 28.5 6.40961 28.5 12Z" fill="white" stroke="#152C5B" stroke-width="3"/>
<circle cx="16" cy="15" r="4.5" stroke="#FF498B" stroke-width="3"/>
</svg>
