<svg width="48" height="48" viewBox="0 0 48 48" fill="none" xmlns="http://www.w3.org/2000/svg">
<path d="M6.3177 20.7794C6.75968 19.9894 7.59422 19.5 8.49949 19.5H39.9971C40.9415 19.5 41.8053 20.0322 42.2301 20.8757L43.7405 23.8757L45.0803 23.2012L43.7405 23.8757C44.5777 25.5384 43.3691 27.5 41.5076 27.5H6.82117C4.91168 27.5 3.70711 25.4459 4.63938 23.7794L6.3177 20.7794Z" stroke="#152C5B" stroke-width="3"/>
<mask id="path-2-inside-1" fill="white">
<path d="M39 48C36.7909 48 35 46.2091 35 44V28C35 27.4477 35.4477 27 36 27H42C42.5523 27 43 27.4477 43 28V44C43 46.2091 41.2091 48 39 48Z"/>
</mask>
<path d="M39 48C36.7909 48 35 46.2091 35 44V28C35 27.4477 35.4477 27 36 27H42C42.5523 27 43 27.4477 43 28V44C43 46.2091 41.2091 48 39 48Z" stroke="#152C5B" stroke-width="6" mask="url(#path-2-inside-1)"/>
<path d="M18 15V18" stroke="#152C5B" stroke-width="3" stroke-linecap="round" stroke-linejoin="round"/>
<path d="M30 15V18" stroke="#152C5B" stroke-width="3" stroke-linecap="round" stroke-linejoin="round"/>
<mask id="path-5-inside-2" fill="white">
<path d="M9 48C6.79086 48 5 46.2091 5 44L5 28C5 27.4477 5.44772 27 6 27H12C12.5523 27 13 27.4477 13 28L13 44C13 46.2091 11.2091 48 9 48Z"/>
</mask>
<path d="M9 48C6.79086 48 5 46.2091 5 44L5 28C5 27.4477 5.44772 27 6 27H12C12.5523 27 13 27.4477 13 28L13 44C13 46.2091 11.2091 48 9 48Z" stroke="#152C5B" stroke-width="6" mask="url(#path-5-inside-2)"/>
<mask id="path-6-inside-3" fill="white">
<path d="M18 15C15.7909 15 14 13.2091 14 11V5C14 4.44771 14.4477 4 15 4H21C21.5523 4 22 4.44772 22 5V11C22 13.2091 20.2091 15 18 15Z"/>
</mask>
<path d="M18 15C15.7909 15 14 13.2091 14 11V5C14 4.44771 14.4477 4 15 4H21C21.5523 4 22 4.44772 22 5V11C22 13.2091 20.2091 15 18 15Z" stroke="#FF498B" stroke-width="6" mask="url(#path-6-inside-3)"/>
<mask id="path-7-inside-4" fill="white">
<path d="M30 15C27.7909 15 26 13.2091 26 11V5C26 4.44771 26.4477 4 27 4H33C33.5523 4 34 4.44772 34 5V11C34 13.2091 32.2091 15 30 15Z"/>
</mask>
<path d="M30 15C27.7909 15 26 13.2091 26 11V5C26 4.44771 26.4477 4 27 4H33C33.5523 4 34 4.44772 34 5V11C34 13.2091 32.2091 15 30 15Z" stroke="#FF498B" stroke-width="6" mask="url(#path-7-inside-4)"/>
</svg>
