<svg width="48" height="48" viewBox="0 0 48 48" fill="none" xmlns="http://www.w3.org/2000/svg">
<mask id="path-1-inside-1" fill="white">
<path fill-rule="evenodd" clip-rule="evenodd" d="M16.4415 7C15.5807 7 14.8164 7.55086 14.5442 8.36754L13 13H8C3.58172 13 0 16.5817 0 21V35C0 39.4183 3.58172 43 8 43H40C44.4183 43 48 39.4183 48 35V21C48 16.5817 44.4183 13 40 13H35L33.4558 8.36754C33.1836 7.55086 32.4193 7 31.5585 7H16.4415Z"/>
</mask>
<path d="M14.5442 8.36754L11.6981 7.41886L11.6981 7.41886L14.5442 8.36754ZM13 13V16H15.1623L15.8461 13.9487L13 13ZM35 13L32.1539 13.9487L32.8377 16H35V13ZM33.4558 8.36754L36.3019 7.41886V7.41886L33.4558 8.36754ZM17.3902 9.31623C17.2541 9.72457 16.8719 10 16.4415 10V4C14.2894 4 12.3787 5.37715 11.6981 7.41886L17.3902 9.31623ZM15.8461 13.9487L17.3902 9.31623L11.6981 7.41886L10.1539 12.0513L15.8461 13.9487ZM8 16H13V10H8V16ZM3 21C3 18.2386 5.23858 16 8 16V10C1.92487 10 -3 14.9249 -3 21H3ZM3 35V21H-3V35H3ZM8 40C5.23858 40 3 37.7614 3 35H-3C-3 41.0751 1.92487 46 8 46V40ZM40 40H8V46H40V40ZM45 35C45 37.7614 42.7614 40 40 40V46C46.0751 46 51 41.0751 51 35H45ZM45 21V35H51V21H45ZM40 16C42.7614 16 45 18.2386 45 21H51C51 14.9249 46.0751 10 40 10V16ZM35 16H40V10H35V16ZM30.6098 9.31623L32.1539 13.9487L37.8461 12.0513L36.3019 7.41886L30.6098 9.31623ZM31.5585 10C31.1281 10 30.7459 9.72457 30.6098 9.31623L36.3019 7.41886C35.6213 5.37715 33.7106 4 31.5585 4V10ZM16.4415 10H31.5585V4H16.4415V10Z" fill="#152C5B" mask="url(#path-1-inside-1)"/>
<circle cx="24" cy="28" r="6.5" stroke="#FF498B" stroke-width="3"/>
<path d="M34 20H41" stroke="#152C5B" stroke-width="3" stroke-linecap="round" stroke-linejoin="round"/>
</svg>
